<svg xmlns="http://www.w3.org/2000/svg" viewBox="0 0 214.01 209.01"><g style="isolation:isolate"><g id="OBJECTS"><path d="M211.68,200.27a24.29,24.29,0,0,1-1.69,9c-16.68-9.35-34.22-10.88-47.53-10.07a24.62,24.62,0,0,1,49.22,1.1Z" transform="translate(-142.99 -98.81)" style="fill:#fff"/><path d="M357,211a106.88,106.88,0,0,1-9.48,34.64h0a105.87,105.87,0,0,1-9.23,16s-18.16,7.63-47.74,3c-18.38-2.85-32.62-16.4-36.2-20.11,15.57-13.78,30.34-29.22,53.65-35.43C330.15,203.28,346.56,206.63,357,211Z" transform="translate(-142.99 -98.81)" style="fill:#fff"/><path d="M357,211c-13.33-2.83-26-5.29-44.63,0-23.17,6.62-39,23.15-54.53,36.93-1.58-1.43-2.76-2.6-3.5-3.37,15.57-13.78,30.34-29.22,53.65-35.43C330.15,203.28,346.56,206.63,357,211Z" transform="translate(-142.99 -98.81)" style="fill:#fff;opacity:0.7000000000000001;mix-blend-mode:screen"/><path d="M336.15,264.67h0a107.56,107.56,0,0,1-183.67-19.05h0A106.88,106.88,0,0,1,143,211c10.44-4.36,26.85-7.71,49-1.82C246.8,223.75,254.44,289.4,336.15,264.67Z" transform="translate(-142.99 -98.81)" style="fill:#fff"/><path d="M336.12,264.71a107.58,107.58,0,0,1-183.64-19.08c.73-.47,15.9-9.95,37.77-4.37,22.41,5.7,48.23,33,76,37.78,37.85,6.53,67.42-12.7,69.75-14.25l0,0Z" transform="translate(-142.99 -98.81)" style="fill:#fff"/><path d="M336.12,264.71a107.53,107.53,0,0,1-161.41,12.35c3.45-3.39,13.53-10.34,34.54-3.39,27.23,9,37.57,21.74,65.91,18.77,38.65-4,58.14-25.17,60.84-27.65l0,0Z" transform="translate(-142.99 -98.81)" style="fill:#fff"/><path d="M336.09,264.73c-1.17,1-41.64,31.09-91.78,10.25-20.78-8.64-39.58-26.29-57.91-29.91-12.1-2.4-25.32,3.17-30.89,6.55-1.08-2-2.08-4-3-6,.73-.47,15.9-9.95,37.77-4.37,22.41,5.7,48.23,33,76,37.78,37.85,6.53,67.42-12.7,69.75-14.25l0,0Z" transform="translate(-142.99 -98.81)" style="fill:#fff;mix-blend-mode:multiply"/><path d="M336.12,264.71l-.11.13c-1.84,2.12-26.12,28.45-67,30.49-21.42,1.07-34.2-7.28-43.1-10.8s-21.39-9.29-30.75-9.22c-8.8.06-13.36,3.13-16.11,5.8-1.5-1.31-3-2.65-4.37-4.05,3.45-3.39,13.52-10.34,34.53-3.39,27.24,9,37.57,21.74,65.91,18.77,38.65-4,58.15-25.18,60.85-27.65l0,0Z" transform="translate(-142.99 -98.81)" style="fill:#fff;mix-blend-mode:multiply"/><path d="M307,168.66s0,0,0,0a79.11,79.11,0,0,0-4.19-17.3,97.28,97.28,0,0,0,5.8-14.5c-1.11,2.81-4.94,8.86-6.85,11.82a40.63,40.63,0,0,0-8.78-13.5c.38-2.86,1.07-8.66.62-11.83,0,0-1.06,5.9-2.31,10.36a20.52,20.52,0,0,0-4.74-2.94c-11.3-4.86-17.29-1.74-17.29-1.74s26.26,33.08,20.5,83.17c0,0-15.42,7.86-38.13,29.63l-2.5-2.55c2.65-2.56,12.63-13.61,18-33.33.33-1.2.64-2.42.91-3.69a102,102,0,0,0,2.54-22.17c0-.81,0-1.62,0-2.44a127,127,0,0,0-1.41-17l-.33-2.09h0a145.4,145.4,0,0,0-3.19-14.54c-.1-.39-.21-.8-.34-1.21-1-3.65-2.2-7.41-3.57-11.27,0,0-18.51-4-31.38,18.71-2.9-4.34-6-12.9-6.24-13.5.69,5.65,4.1,13.07,5.22,15.42a74,74,0,0,0-4.57,11.05,83.16,83.16,0,0,1-4.4-11.33c.16,5.11,3.55,14.1,3.55,14.1-.95,3.25-1.82,6.81-2.56,10.7l-.08-.13c-1.3-2.2-17.94-31.34,5.2-48.06,6.35-4.59,18.94-7.25,32.86-1.9-4-4-13.2-11.21-25.56-10.92-1.6-4.76.12-10.7.26-11.2-2.24,3.7-2.24,9.08-1.95,11.28a32.51,32.51,0,0,0-7.54,1.51,45.63,45.63,0,0,0-4.85,1.87c-2.74-7.91-1.36-17.36-1.36-17.36-2.54,7.06-.95,15.17-.3,18.13a49.35,49.35,0,0,0-10.89,7.48c-2.7-7.92-3.69-18.59-3.69-18.59-1.19,7.74.8,16.64,1.79,20.38v0a60,60,0,0,0-13.55,20.85v0a.08.08,0,0,0,0-.06s0,0,0,0c-.8-2.4-12.15-38.4,19-49.7,4.27-1.55,30.33-7.18,51.39,21.59a.46.46,0,0,1,.07.1,0,0,0,0,1,0,0c0-.33.05-.66.08-1a.11.11,0,0,1,0-.05c.68-7,4.09-16.22,13.24-19.82,7.12-2.8,24.78-3,32.45,15.57,0,0-9-5.45-19.12-5.81-.7-1.54-3.09-6.59-5.78-8.54a45.62,45.62,0,0,1,4.17,8.54,23.08,23.08,0,0,0-9,1.91l-.07,0a45,45,0,0,0-5.58-5.39,30.21,30.21,0,0,1,4.56,5.88c-7.45,3.7-9,8.74-10,11.53h0c7.34-5.37,24.86-10.11,37.54.83C323.23,141.75,307.66,167.63,307,168.66Z" transform="translate(-142.99 -98.81)" style="fill:#fff"/><path d="M262.13,122c-14.84-17.65-30.09-21.48-39.91-21.72a31.17,31.17,0,0,0-21.35,7.64c-16.55,14.6-9.75,40-9.24,42.09-.8-2.4-12.15-38.4,19-49.7,4.27-1.55,30.33-7.18,51.39,21.59A.46.46,0,0,1,262.13,122Z" transform="translate(-142.99 -98.81)" style="fill:#fff;mix-blend-mode:screen"/><path d="M259.31,126.68c-21.83-6.1-32.54,3.78-32.54,3.78-21.09,17.31-6.57,44.12-5.52,46.18-1.3-2.2-17.94-31.34,5.2-48.06C232.8,124,245.39,121.33,259.31,126.68Z" transform="translate(-142.99 -98.81)" style="fill:#fff;mix-blend-mode:screen"/><path d="M307.92,116.71c-7.55-16-24-15.74-24-15.74-16.73.36-20.92,16-21.72,20,.68-7,4.09-16.22,13.24-19.82C282.59,98.34,300.25,98.09,307.92,116.71Z" transform="translate(-142.99 -98.81)" style="fill:#fff;mix-blend-mode:screen"/><path d="M307,168.66c11.24-25.78-1-39.35-1-39.35-13.27-15.76-38.06-4.89-38.94-4.45,7.34-5.37,24.86-10.11,37.54.83C323.23,141.75,307.66,167.63,307,168.66Z" transform="translate(-142.99 -98.81)" style="fill:#fff;mix-blend-mode:screen"/><path d="M273.32,139.53s-2.17,2.76-7.7,4.57c-.1-.39-.21-.8-.34-1.21h0A27.08,27.08,0,0,0,273.32,139.53Z" transform="translate(-142.99 -98.81)" style="fill:#fff;opacity:0.5;mix-blend-mode:multiply"/><path d="M280.41,153.82c-.12.26-2.2,4.42-11.25,6.91l-.33-2.09A27.11,27.11,0,0,0,280.41,153.82Z" transform="translate(-142.99 -98.81)" style="fill:#fff;opacity:0.5;mix-blend-mode:multiply"/><path d="M285,174.29c-.52.54-3.61,4.73-14.46,5.83,0-.81,0-1.62,0-2.44v0S280.41,177.43,285,174.29Z" transform="translate(-142.99 -98.81)" style="fill:#fff;opacity:0.5;mix-blend-mode:multiply"/><path d="M287.57,199s-4.61,5.71-20.45,7c.33-1.2.64-2.42.91-3.69h0A31.74,31.74,0,0,0,287.57,199Z" transform="translate(-142.99 -98.81)" style="fill:#fff;opacity:0.5;mix-blend-mode:multiply"/><path d="M175.28,157.24s-.37-1.37-3-2.32-7.3-3.82-7.84-4.67-2-2.15-2.27-2.53-.59.83.36,2.05A29.37,29.37,0,0,1,165,153.1a8.81,8.81,0,0,0,5.08,4.32c2.89.74,4.3,1.18,4.25,1.55a1.21,1.21,0,0,1-1.18.9c-.64,0-2.35-.39-2.45,0s1.31,3.36,3.38,3.68a6.2,6.2,0,0,0,4.35-1c.24-.29-1.49-.34-1.33-1s1.08-.48,1.53-1,1.85-.47,2.21-.51-.21-.29-.21-.29,2.93-.18,4.15-.22,4-.92,4.91-.78,7.83-1.42,8.05-2c.14-.38-1.08.07-2.19.32a20.79,20.79,0,0,1-6.18.33,26,26,0,0,0-4.43-.67,36.75,36.75,0,0,0-4.46,1.2,13.22,13.22,0,0,1-1.6.31,5,5,0,0,0-1.37-.9A8.49,8.49,0,0,0,175.28,157.24Z" transform="translate(-142.99 -98.81)" style="fill:#fff"/><path d="M243.23,194.38a1.15,1.15,0,0,0-1-.44,5.22,5.22,0,0,1-1.3.31,2.62,2.62,0,0,1-2.21-1.71c-.45-1.41.17-3.58-1-4.07a19.67,19.67,0,0,0-8.1-.74c-3.69.37-4,.29-2.83,1.14a7.41,7.41,0,0,0,3.69,1.12,5,5,0,0,1,2.55.6c.54.46.85,1.52,1.68,3s1.87,3.18,1.81,3.69a2.18,2.18,0,0,1-1.46,1.41c-.74.25-1.37.4-1.23.65s.94.61,1.29.86.8.69,1,.4.66-1.2,1.52-1.46a8,8,0,0,0,2.74-.94,8.72,8.72,0,0,0,2.46-2.29c.17-.2.75.14,1,.49a7.87,7.87,0,0,0,1.49,1.86c.8.6,1.06,1.66,1.66,1.83s.37-2.43.34-3.72a4.18,4.18,0,0,0-.57-2.55c-.43-.63-.91-.77-1.29-.51A8.61,8.61,0,0,1,243.23,194.38Z" transform="translate(-142.99 -98.81)" style="fill:#fff"/></g></g></svg>